# xmcd
#
# Track frame offsets:
# 150
# 16009
# 32897
# 45612
# 58267
# 73770
# 87137
# 98867
# 109795
# 125627
# 141400
# 159952
# 171542
# 178540
#
# Disc length: 2710 seconds
#
#
# Revision: 0
# Processed by: cddbd v1.5.1PL2 Copyright (c) Steve Scherf et al.
# Submitted via: FreeRIP 2.943 
#
DISCID=c20a940e
DTITLE=Lightnin' Charlie and the Upsetters - A New Leaf
DYEAR=2005
DGENRE=Blues
TTITLE0=You Don't Love Me
TTITLE1=A New Leaf
TTITLE2=Just Your Fool
TTITLE3=Friend
TTITLE4=Obviously
TTITLE5=Just A Little Bit
TTITLE6=Boppin' the Blues
TTITLE7=Marie Marie
TTITLE8=Miami Tammi
TTITLE9=Takin' Care of Business
TTITLE10=The Blues Are To Blame
TTITLE11=Down In the Alley
TTITLE12=Come By Here
TTITLE13=Come On In This House
EXTD=Blue Chip Records\nhttp://www.lightnincharlie.com/
EXTT0=
EXTT1=
EXTT2=
EXTT3=
EXTT4=
EXTT5=
EXTT6=
EXTT7=
EXTT8=
EXTT9=
EXTT10=
EXTT11=
EXTT12=
EXTT13=Bonus Track - Live at the Red Lion, High Point, NC
PLAYORDER=
